<svg xmlns="http://www.w3.org/2000/svg" viewBox="0 0 100 100">
  <circle cx="50" cy="50" r="45" fill="#111111" stroke="#F7931A" stroke-width="2" />
  <path d="M65 45 C65 37 60 35 55 34 L55 25 L50 25 L50 34 L45 34 L45 25 L40 25 L40 34 L30 34 L30 39 L35 39 C37 39 38 40 38 42 L38 60 C38 61 37 63 35 63 L30 63 L30 68 L40 68 L40 75 L45 75 L45 68 L50 68 L50 75 L55 75 L55 68 C62 67 67 64 67 57 C67 51 64 49 60 48 C63 46 65 44 65 45 Z M45 40 L55 40 C58 40 60 42 60 45 C60 48 58 50 55 50 L45 50 Z M45 55 L55 55 C59 55 60 57 60 60 C60 63 58 65 55 65 L45 65 Z" fill="#F7931A" />
</svg>