<svg width="256" height="256" viewBox="0 0 256 256" fill="none" xmlns="http://www.w3.org/2000/svg">
  <circle cx="128" cy="128" r="128" fill="#05050F"/>
  <path d="M185.311 131.863C181.569 151.84 162.039 164.08 142.068 160.34C122.091 156.599 109.857 137.069 113.592 117.092C117.334 97.1152 136.864 84.8748 156.841 88.6161C176.818 92.3574 189.052 111.887 185.311 131.863ZM152.936 136.839L155.936 123.32L147.865 121.413L145.035 134.337L141.03 133.353L143.86 120.429L135.796 118.517L132.796 132.037L129.862 131.374L132.862 117.854L124.798 115.948L122.134 127.903L118.301 127.275L120.959 115.32L116.046 113.998L112.709 129.212C122.627 146.092 142.851 153.922 159.73 144.004C159.73 144.004 161.466 143.127 163.135 142.209L159.964 156.927L164.877 158.243L168.214 143.029L172.048 143.651L168.711 158.865L176.774 160.771L180.112 145.557L183.046 146.226L179.708 161.44L187.772 163.346L190.771 149.826L194.676 150.759L191.677 164.273L200.322 166.258L204.155 146.631C194.236 129.751 174.013 121.921 157.133 131.846C157.133 131.846 155.391 132.717 152.936 136.839Z" fill="#F7931A"/>
</svg>