<svg width="256" height="256" viewBox="0 0 256 256" fill="none" xmlns="http://www.w3.org/2000/svg">
  <circle cx="128" cy="128" r="128" fill="#05050F"/>
  <circle cx="128" cy="128" r="15" fill="#6F7390"/>
  <circle cx="128" cy="71" r="8" fill="#6F7390"/>
  <circle cx="128" cy="185" r="8" fill="#6F7390"/>
  <circle cx="185" cy="128" r="8" fill="#6F7390"/>
  <circle cx="71" cy="128" r="8" fill="#6F7390"/>
  <circle cx="169.213" cy="86.7868" r="8" fill="#6F7390"/>
  <circle cx="86.7868" cy="169.213" r="8" fill="#6F7390"/>
  <circle cx="169.213" cy="169.213" r="8" fill="#6F7390"/>
  <circle cx="86.7868" cy="86.7868" r="8" fill="#6F7390"/>
  <path d="M128 71V113" stroke="#6F7390" stroke-width="2"/>
  <path d="M128 143V185" stroke="#6F7390" stroke-width="2"/>
  <path d="M143 128H185" stroke="#6F7390" stroke-width="2"/>
  <path d="M71 128H113" stroke="#6F7390" stroke-width="2"/>
  <path d="M156.569 99.4312L135.355 120.645" stroke="#6F7390" stroke-width="2"/>
  <path d="M120.645 135.355L99.4312 156.569" stroke="#6F7390" stroke-width="2"/>
  <path d="M156.569 156.569L135.355 135.355" stroke="#6F7390" stroke-width="2"/>
  <path d="M120.645 120.645L99.4312 99.4312" stroke="#6F7390" stroke-width="2"/>
</svg>