<svg width="256" height="256" viewBox="0 0 256 256" fill="none" xmlns="http://www.w3.org/2000/svg">
  <circle cx="128" cy="128" r="128" fill="#05050F"/>
  <path d="M52.5762 51.1523H139.76C142.854 51.1523 145.385 53.6836 145.385 56.7773V200.223C145.385 203.316 142.854 205.848 139.76 205.848H52.5762C49.4824 205.848 46.9512 203.316 46.9512 200.223V56.7773C46.9512 53.6836 49.4824 51.1523 52.5762 51.1523Z" fill="#1E88E5"/>
  <path d="M177.037 51.1523H190.424C193.518 51.1523 196.049 53.6836 196.049 56.7773V82.0039C196.049 85.0977 193.518 87.6289 190.424 87.6289H177.037C173.943 87.6289 171.412 85.0977 171.412 82.0039V56.7773C171.412 53.6836 173.943 51.1523 177.037 51.1523Z" fill="#1E88E5"/>
  <path d="M177.037 109.762H190.424C193.518 109.762 196.049 112.293 196.049 115.387V140.613C196.049 143.707 193.518 146.238 190.424 146.238H177.037C173.943 146.238 171.412 143.707 171.412 140.613V115.387C171.412 112.293 173.943 109.762 177.037 109.762Z" fill="#1E88E5"/>
  <path d="M177.037 168.371H190.424C193.518 168.371 196.049 170.902 196.049 173.996V199.223C196.049 202.316 193.518 204.848 190.424 204.848H177.037C173.943 204.848 171.412 202.316 171.412 199.223V173.996C171.412 170.902 173.943 168.371 177.037 168.371Z" fill="#1E88E5"/>
</svg>