<svg width="256" height="256" viewBox="0 0 256 256" fill="none" xmlns="http://www.w3.org/2000/svg">
  <circle cx="128" cy="128" r="128" fill="#05050F"/>
  <path d="M128 212C175.496 212 214 173.496 214 126C214 78.5035 175.496 40 128 40C80.5035 40 42 78.5035 42 126C42 173.496 80.5035 212 128 212Z" fill="#FF0420"/>
  <path d="M94.2 127.47C94.2 119.77 96.68 113.87 101.64 109.77C106.62 105.65 112.8 103.59 120.18 103.59C127.5 103.59 133.62 105.65 138.54 109.77C143.46 113.87 145.92 119.77 145.92 127.47C145.92 135.25 143.46 141.21 138.54 145.37C133.62 149.53 127.5 151.61 120.18 151.61C112.92 151.61 106.76 149.53 101.78 145.37C96.8 141.19 94.3 135.23 94.3 127.47H94.2ZM128.34 127.47C128.34 123.51 127.52 120.47 125.88 118.33C124.26 116.17 122.02 115.09 119.16 115.09C116.3 115.09 114.06 116.17 112.44 118.33C110.82 120.47 110 123.51 110 127.47C110 131.49 110.82 134.57 112.44 136.73C114.06 138.89 116.3 139.97 119.16 139.97C122.02 139.97 124.26 138.89 125.88 136.73C127.52 134.57 128.34 131.49 128.34 127.47Z" fill="white"/>
  <path d="M161.08 137.11C161.08 140.17 162.2 142.51 164.44 144.15C166.68 145.79 169.42 146.61 172.68 146.61C176.9 146.61 180.64 145.77 183.92 144.09V132.65H172.94C171.36 132.65 170.02 133.19 168.94 134.27C167.86 135.35 167.32 136.67 167.32 138.25C167.32 138.77 167.38 138.29 167.5 138.81H161.08V137.11ZM128 224C181.856 224 225 180.856 225 127C225 73.1441 181.856 30 128 30C74.1441 30 31 73.1441 31 127C31 180.856 74.1441 224 128 224Z" fill="#FF0420"/>
  <path d="M128 224C181.856 224 225 180.856 225 127C225 73.1441 181.856 30 128 30C74.1441 30 31 73.1441 31 127C31 180.856 74.1441 224 128 224Z" stroke="#FF0420" stroke-width="8"/>
</svg>