<svg width="256" height="256" viewBox="0 0 256 256" fill="none" xmlns="http://www.w3.org/2000/svg">
  <circle cx="128" cy="128" r="128" fill="#05050F"/>
  <path d="M65.25 63.7501V192.25H128H190.75V63.7501H65.25ZM184.833 67.6668V125.042H131.917V188.333H71.1667V67.6668H184.833Z" fill="#D1FF52"/>
  <path d="M102.083 162.479C99.2917 165.271 96.1458 167.021 93.3542 168.396C90.5625 169.771 87.7708 170.458 84.9792 170.458C82.9583 170.458 81.1458 170.083 79.3333 169.333C77.5208 168.583 76.0208 167.417 75.0833 166.146C72.7083 163.229 71.9583 160.083 71.9583 153.271V100.896C71.9583 94.0834 72.7083 90.9376 75.0833 88.0209C76.0208 86.7501 77.5208 85.5834 79.3333 84.8334C81.1458 84.0834 82.9583 83.7084 84.9792 83.7084C87.7708 83.7084 90.5625 84.3959 93.3542 85.7709C96.1458 87.1459 99.2917 88.8959 102.083 91.6876H140.833V78.5417H65.25V177.458H140.833V162.479H102.083Z" fill="#D1FF52"/>
  <path d="M143.125 131.354H171.708V102.771H143.125V131.354Z" fill="#D1FF52"/>
</svg>